<svg xmlns="http://www.w3.org/2000/svg" xmlns:xlink="http://www.w3.org/1999/xlink" width="1080" zoomAndPan="magnify" viewBox="0 0 810 201.000001" height="268" preserveAspectRatio="xMidYMid meet" version="1.0"><path fill="#0083a0" d="M 80.953125 67.765625 L 15.234375 67.765625 L 15.234375 133.480469 L 80.953125 133.480469 Z M 80.953125 67.765625 " fill-opacity="1" fill-rule="nonzero"/><path fill="#004f69" d="M 146.675781 199.167969 L 146.675781 133.460938 L 212.398438 133.460938 L 212.398438 199.167969 Z M 80.957031 199.167969 L 80.957031 133.460938 L 146.675781 133.460938 L 146.675781 199.167969 Z M 146.675781 133.460938 L 146.675781 67.746094 L 212.398438 67.746094 L 212.398438 133.460938 Z M 146.675781 67.746094 L 146.675781 2.03125 L 212.398438 2.03125 L 212.398438 67.746094 Z M 146.675781 67.746094 " fill-opacity="1" fill-rule="nonzero"/><path fill="#010205" d="M 325.105469 58.023438 L 351.925781 58.023438 L 351.925781 159.585938 C 352.210938 165.933594 350.671875 172.230469 347.496094 177.734375 C 344.492188 182.390625 340.050781 185.945312 334.847656 187.855469 C 328.566406 190.132812 321.917969 191.222656 315.238281 191.066406 C 314.28125 191.066406 313.378906 191.054688 312.535156 191.027344 C 311.691406 191.003906 310.792969 190.964844 309.835938 190.914062 L 309.835938 169.972656 C 310.539062 170.023438 311.160156 170.0625 311.695312 170.085938 C 312.230469 170.113281 312.789062 170.125 313.367188 170.125 C 314.988281 170.292969 316.628906 170.136719 318.191406 169.664062 C 319.753906 169.191406 321.210938 168.414062 322.46875 167.375 C 324.382812 165.082031 325.328125 162.128906 325.105469 159.152344 Z M 338.464844 45.523438 C 334.65625 45.59375 330.976562 44.160156 328.214844 41.539062 C 326.863281 40.34375 325.78125 38.867188 325.042969 37.214844 C 324.308594 35.5625 323.933594 33.773438 323.949219 31.964844 C 323.933594 30.15625 324.308594 28.367188 325.042969 26.714844 C 325.78125 25.0625 326.863281 23.585938 328.214844 22.390625 C 330.976562 19.765625 334.65625 18.335938 338.464844 18.402344 C 342.277344 18.328125 345.96875 19.761719 348.730469 22.390625 C 350.082031 23.589844 351.160156 25.066406 351.890625 26.71875 C 352.621094 28.367188 352.992188 30.15625 352.976562 31.964844 C 352.992188 33.773438 352.621094 35.5625 351.886719 37.214844 C 351.15625 38.863281 350.074219 40.339844 348.722656 41.539062 C 345.960938 44.164062 342.273438 45.601562 338.464844 45.523438 Z M 431.648438 156.664062 C 422.71875 156.90625 413.878906 154.820312 406 150.613281 C 398.890625 146.636719 393.128906 140.628906 389.453125 133.359375 C 385.414062 125.117188 383.429688 116.023438 383.664062 106.851562 C 383.464844 97.769531 385.457031 88.777344 389.472656 80.628906 C 393.136719 73.335938 398.808594 67.238281 405.816406 63.050781 C 413.339844 58.710938 421.910156 56.523438 430.59375 56.726562 C 436.695312 56.683594 442.753906 57.730469 448.488281 59.8125 C 453.921875 61.789062 458.859375 64.921875 462.964844 68.992188 C 467.269531 73.34375 470.574219 78.585938 472.644531 84.347656 C 475.09375 91.265625 476.269531 98.570312 476.125 105.90625 L 476.125 113.265625 L 394.398438 113.265625 L 394.398438 96.628906 L 450.859375 96.628906 C 450.902344 93.050781 450.019531 89.519531 448.296875 86.378906 C 446.664062 83.441406 444.257812 81.003906 441.339844 79.332031 C 438.203125 77.578125 434.65625 76.695312 431.0625 76.769531 C 427.269531 76.695312 423.527344 77.671875 420.257812 79.597656 C 417.191406 81.414062 414.65625 84.003906 412.90625 87.109375 C 411.125 90.296875 410.183594 93.882812 410.179688 97.535156 L 410.179688 113.347656 C 410.070312 117.644531 410.992188 121.90625 412.875 125.769531 C 414.5625 129.136719 417.203125 131.9375 420.464844 133.820312 C 424.023438 135.769531 428.03125 136.746094 432.085938 136.640625 C 434.878906 136.679688 437.65625 136.253906 440.308594 135.375 C 442.679688 134.578125 444.851562 133.285156 446.679688 131.582031 C 448.484375 129.875 449.863281 127.773438 450.707031 125.441406 L 475.507812 127.050781 C 474.347656 132.839844 471.691406 138.226562 467.8125 142.675781 C 463.714844 147.265625 458.574219 150.800781 452.820312 152.984375 C 446.0625 155.546875 438.875 156.796875 431.648438 156.664062 Z M 534.664062 98.851562 L 534.664062 154.800781 L 507.84375 154.800781 L 507.84375 58.027344 L 533.398438 58.027344 L 533.398438 75.105469 L 534.511719 75.105469 C 536.574219 69.589844 540.363281 64.886719 545.316406 61.699219 C 550.808594 58.277344 557.191406 56.558594 563.660156 56.757812 C 569.816406 56.613281 575.898438 58.144531 581.257812 61.183594 C 586.28125 64.152344 590.332031 68.519531 592.914062 73.753906 C 595.820312 79.800781 597.230469 86.453125 597.03125 93.15625 L 597.03125 154.800781 L 570.214844 154.800781 L 570.214844 97.9375 C 570.542969 92.890625 568.917969 87.90625 565.671875 84.023438 C 564.050781 82.324219 562.078125 80.996094 559.894531 80.128906 C 557.710938 79.265625 555.367188 78.882812 553.019531 79.007812 C 549.683594 78.941406 546.386719 79.753906 543.464844 81.363281 C 540.691406 82.9375 538.453125 85.296875 537.015625 88.140625 C 535.390625 91.472656 534.582031 95.144531 534.664062 98.851562 Z M 712.886719 85.566406 L 688.339844 87.078125 C 687.902344 84.992188 686.96875 83.039062 685.617188 81.386719 C 684.148438 79.613281 682.28125 78.210938 680.167969 77.292969 C 677.621094 76.214844 674.871094 75.695312 672.105469 75.765625 C 668.425781 75.640625 664.78125 76.542969 661.582031 78.371094 C 660.304688 79.019531 659.230469 80.007812 658.484375 81.230469 C 657.734375 82.453125 657.335938 83.855469 657.335938 85.289062 C 657.3125 86.414062 657.546875 87.527344 658.019531 88.546875 C 658.492188 89.566406 659.191406 90.464844 660.066406 91.171875 C 662.894531 93.179688 666.152344 94.496094 669.582031 95.019531 L 687.128906 98.570312 C 694.851562 99.71875 702.117188 102.933594 708.15625 107.875 C 710.453125 110.035156 712.261719 112.660156 713.460938 115.578125 C 714.660156 118.492188 715.226562 121.632812 715.113281 124.78125 C 715.191406 130.820312 713.222656 136.710938 709.523438 141.488281 C 705.519531 146.492188 700.257812 150.347656 694.269531 152.648438 C 687.183594 155.421875 679.621094 156.78125 672.011719 156.640625 C 661.230469 157.203125 650.542969 154.410156 641.410156 148.652344 C 637.757812 146.171875 634.679688 142.933594 632.386719 139.160156 C 630.097656 135.382812 628.644531 131.160156 628.128906 126.773438 L 654.492188 125.363281 C 654.804688 127.167969 655.480469 128.890625 656.476562 130.429688 C 657.472656 131.964844 658.773438 133.285156 660.292969 134.308594 C 663.832031 136.476562 667.9375 137.539062 672.082031 137.363281 C 676.0625 137.546875 680.015625 136.589844 683.46875 134.605469 C 684.753906 133.917969 685.835938 132.898438 686.601562 131.65625 C 687.371094 130.414062 687.792969 128.992188 687.832031 127.535156 C 687.835938 126.359375 687.5625 125.199219 687.03125 124.148438 C 686.5 123.101562 685.726562 122.191406 684.777344 121.5 C 681.972656 119.605469 678.78125 118.363281 675.4375 117.855469 L 658.699219 114.53125 C 650.839844 113.429688 643.492188 110.011719 637.589844 104.714844 C 635.28125 102.363281 633.476562 99.566406 632.285156 96.496094 C 631.09375 93.425781 630.539062 90.144531 630.65625 86.851562 C 630.496094 81.082031 632.277344 75.425781 635.71875 70.792969 C 639.433594 66.0625 644.394531 62.464844 650.042969 60.40625 C 656.953125 57.84375 664.285156 56.605469 671.652344 56.757812 C 681.863281 56.191406 691.988281 58.902344 700.554688 64.492188 C 703.980469 66.945312 706.847656 70.089844 708.972656 73.726562 C 711.101562 77.363281 712.433594 81.40625 712.886719 85.59375 Z M 746.292969 154.800781 L 746.292969 58.027344 L 773.109375 58.027344 L 773.109375 154.800781 Z M 759.769531 45.519531 C 755.957031 45.585938 752.273438 44.15625 749.503906 41.535156 C 748.148438 40.335938 747.066406 38.863281 746.332031 37.207031 C 745.59375 35.558594 745.222656 33.765625 745.234375 31.957031 C 745.222656 30.148438 745.597656 28.359375 746.335938 26.707031 C 747.070312 25.054688 748.15625 23.578125 749.511719 22.382812 C 752.269531 19.761719 755.949219 18.332031 759.75 18.398438 C 763.566406 18.320312 767.253906 19.753906 770.019531 22.382812 C 771.367188 23.582031 772.449219 25.058594 773.179688 26.710938 C 773.914062 28.363281 774.285156 30.152344 774.269531 31.957031 C 774.285156 33.765625 773.914062 35.554688 773.179688 37.207031 C 772.449219 38.859375 771.367188 40.335938 770.019531 41.535156 C 767.261719 44.160156 763.578125 45.589844 759.769531 45.519531 Z M 759.769531 45.519531 " fill-opacity="1" fill-rule="nonzero"/></svg>